<svg width="1440" height="1024" viewBox="0 0 1440 1024" fill="none" xmlns="http://www.w3.org/2000/svg">
<rect width="1440" height="1024" fill="#0D1628"/>
<g opacity="0.85" filter="url(#filter0_f_3_6)">
<path fill-rule="evenodd" clip-rule="evenodd" d="M762.064 359.965C828.573 368.999 911.819 380.499 934.109 443.809C957.961 511.56 909.905 583.918 858.612 634.2C810.405 681.457 742.868 708.437 676.443 696.396C616.456 685.522 577.016 632.273 549.073 578.089C525.771 532.906 512.44 475.561 540.794 433.364C565.425 396.707 622.04 421.017 663.958 407.113C700.189 395.094 724.239 354.827 762.064 359.965Z" fill="#AB71F4"/>
</g>
<g style="mix-blend-mode:overlay" opacity="0.85" filter="url(#filter1_f_3_6)">
<path fill-rule="evenodd" clip-rule="evenodd" d="M873.435 211.737C915.878 226.047 944.829 283.333 937.113 327.454C928.601 376.129 841.38 382.421 835.018 431.424C827.007 493.126 921.371 543.54 901.409 602.471C885.269 650.119 811.023 654.77 760.928 650.152C714.162 645.841 688.436 587.667 642.357 578.592C590.867 568.451 523.348 635.894 488.645 596.527C452.717 555.771 520.081 493.657 519.593 439.328C519.268 403.16 480.275 373.651 486.323 337.991C492.418 302.053 524.689 277.272 551.303 252.364C577.234 228.095 603.494 194.15 638.998 195.103C675.908 196.093 691.664 254.506 728.496 257.119C779.87 260.765 824.631 195.283 873.435 211.737Z" fill="url(#paint0_linear_3_6)"/>
</g>
<defs>
<filter id="filter0_f_3_6" x="364.748" y="199.514" width="735.652" height="659.742" filterUnits="userSpaceOnUse" color-interpolation-filters="sRGB">
<feFlood flood-opacity="0" result="BackgroundImageFix"/>
<feBlend mode="normal" in="SourceGraphic" in2="BackgroundImageFix" result="shape"/>
<feGaussianBlur stdDeviation="80" result="effect1_foregroundBlur_3_6"/>
</filter>
<filter id="filter1_f_3_6" x="299.121" y="16.1134" width="818.208" height="814.406" filterUnits="userSpaceOnUse" color-interpolation-filters="sRGB">
<feFlood flood-opacity="0" result="BackgroundImageFix"/>
<feBlend mode="normal" in="SourceGraphic" in2="BackgroundImageFix" result="shape"/>
<feGaussianBlur stdDeviation="89.4849" result="effect1_foregroundBlur_3_6"/>
</filter>
<linearGradient id="paint0_linear_3_6" x1="812.319" y1="273.347" x2="115.938" y2="656.478" gradientUnits="userSpaceOnUse">
<stop stop-color="#34FEFE"/>
<stop offset="1" stop-color="white" stop-opacity="0"/>
</linearGradient>
</defs>
</svg>
